<?xml version="1.0" standalone="no"?>
<!DOCTYPE svg PUBLIC "-//W3C//DTD SVG 20010904//EN"
 "http://www.w3.org/TR/2001/REC-SVG-20010904/DTD/svg10.dtd">
<svg version="1.0" xmlns="http://www.w3.org/2000/svg"
 width="1280.000000pt" height="1248.000000pt" viewBox="0 0 1280.000000 1248.000000"
 preserveAspectRatio="xMidYMid meet">
<g transform="translate(0.000000,1248.000000) scale(0.100000,-0.100000)"
fill="#000000" stroke="none">
<path d="M8750 12460 c-134 -23 -210 -43 -297 -78 -378 -154 -651 -487 -729
-889 -21 -105 -23 -315 -6 -421 99 -594 639 -1030 1241 -999 305 15 574 133
787 343 234 232 354 521 354 854 0 200 -37 365 -120 531 -153 305 -432 537
-755 625 -73 21 -284 54 -330 53 -22 0 -87 -9 -145 -19z"/>
<path d="M12595 10740 l-181 -120 -112 -345 -112 -344 -38 -11 c-163 -47
-2696 -658 -2705 -653 -7 4 -398 287 -869 630 -472 343 -870 630 -885 638 -19
10 -185 27 -527 55 -274 23 -499 40 -501 38 -1 -2 -658 -824 -1459 -1826
l-1457 -1824 -449 -1651 c-248 -909 -453 -1659 -457 -1668 -5 -9 -642 -641
-1418 -1404 -776 -763 -1411 -1390 -1413 -1394 -1 -3 40 -112 92 -241 l94
-235 851 0 c554 0 852 3 853 10 1 5 -201 173 -450 373 -272 218 -449 367 -446
375 3 6 555 399 1226 872 672 473 1229 867 1239 875 11 9 258 640 613 1565
340 887 600 1551 608 1552 12 3 1645 -2598 1655 -2635 3 -13 -709 -2056 -942
-2704 l-24 -67 210 -263 c203 -254 212 -263 252 -270 23 -4 341 -17 707 -28
366 -11 716 -26 778 -32 101 -9 135 -7 121 6 -3 3 -292 177 -644 386 -352 210
-644 386 -649 390 -5 5 284 652 653 1467 365 802 663 1465 664 1473 0 8 -318
700 -707 1538 -533 1148 -705 1526 -697 1536 20 24 1792 1281 1804 1280 10 -1
1372 -1076 1459 -1151 18 -16 -184 -61 2358 527 597 138 1089 255 1094 260 5
5 11 327 14 716 4 604 3 706 -9 698 -70 -42 -298 -194 -302 -201 -3 -4 -35
-163 -72 -353 -36 -190 -70 -349 -74 -353 -4 -4 -134 -21 -287 -38 -1149 -122
-2550 -269 -2565 -269 -22 0 -1122 1156 -1114 1170 7 12 0 15 560 -225 354
-151 467 -195 490 -192 17 3 780 208 1697 456 917 248 1669 451 1672 451 8 0
7 261 -1 823 -3 251 -9 457 -12 457 -3 0 -87 -54 -186 -120z"/>
</g>
</svg>
